# xmcd
#
# Track frame offsets:
# 150
# 16168
# 35440
# 50614
# 70260
# 83776
# 98295
# 116006
# 129315
# 142756
# 156648
# 168914
# 182930
# 200448
#
# Disc length: 2900 seconds
#
#
# Revision: 0
# Processed by: cddbd v1.5.2PL0 Copyright (c) Steve Scherf et al.
# Submitted via: FreeRIP 2.96 
#
DISCID=b40b520e
DTITLE=Daniel - Nova Série - Meu Reino Encantado
DYEAR=2007
DGENRE=Sertanejo
TTITLE0=Meu Reino Encantado - José Camillo
TTITLE1=Avenida Boiadeira - Rick and Renner
TTITLE2=A Volta Do Boiadeiro - Lourenço and Lourival
TTITLE3=Quando Bate A Paixão - Milionário and José Rico
TTITLE4=Moreninha Linda - Tinoco
TTITLE5=Cuitelinho - Pena Branca
TTITLE6=Mágoa De Boiadeiro - Pedro Bento and Zé da Estrada
TTITLE7=Encanto Da Natureza - José Camillo
TTITLE8=Paixão Dupla - Gino and Geno e Borghettinho
TTITLE9=Mercedita - Perla
TTITLE10=Gente De Minha Terra - Amaraí and Francis Jr.
TTITLE11=Cobra Venenosa - Rolando Boldrim and José Camillo
TTITLE12=Tocando Em Frente - Almir Sater
TTITLE13=Mundo Velho - José Camillo
EXTD=Ano 2007 - M.P.A.
EXTT0=
EXTT1=
EXTT2=
EXTT3=
EXTT4=
EXTT5=
EXTT6=
EXTT7=
EXTT8=
EXTT9=
EXTT10=
EXTT11=
EXTT12=
EXTT13=
PLAYORDER=
